<svg width="60" height="42" viewBox="0 0 60 42" fill="none" xmlns="http://www.w3.org/2000/svg">
<g clip-path="url(#clip0_48_68)">
<path d="M60.0002 42H0V6.60645H25.382V7.90187H1.30418V40.7045H58.696V7.90187H35.046V6.60645H60.0002V42Z" fill="white"/>
<path d="M10.604 12.2915C11.234 12.2499 11.8572 12.4409 12.354 12.8278C12.5573 13.0055 12.7181 13.2261 12.8247 13.4734C12.9314 13.7207 12.9812 13.9885 12.9704 14.2573C12.9837 14.5732 12.9198 14.8876 12.7841 15.1736C12.6483 15.4596 12.4448 15.7086 12.191 15.8994C11.4827 16.3527 10.648 16.5715 9.80676 16.5243H5.91968C5.47273 16.5316 5.02695 16.4771 4.59512 16.3624C4.27594 16.2828 3.97388 16.1465 3.70359 15.9601C3.4932 15.8066 3.31569 15.6131 3.18141 15.3908C3.05994 15.2019 2.97125 14.9941 2.91905 14.776C2.87816 14.5847 2.85768 14.3896 2.85791 14.194H4.93136C4.98994 14.528 5.36174 14.6975 6.04959 14.6975H9.80676C10.5073 14.6975 10.8588 14.5634 10.8588 14.2953C10.8588 14.065 10.6449 13.9512 10.2194 13.9512H5.42043C4.7693 13.9951 4.12275 13.8156 3.58897 13.4426C3.38223 13.2748 3.21771 13.0614 3.1085 12.8194C2.99928 12.5774 2.94838 12.3135 2.9598 12.0485C2.95538 11.7585 3.01152 11.4707 3.12465 11.2034C3.23779 10.936 3.40541 10.6948 3.61707 10.495C3.88962 10.2489 4.21701 10.0703 4.57236 9.97381C5.04293 9.83658 5.53115 9.76841 6.02157 9.77148H9.84242C10.2903 9.76495 10.7367 9.82465 11.167 9.94859C11.4858 10.035 11.7844 10.1829 12.0458 10.3838C12.2455 10.5489 12.4122 10.7498 12.5374 10.9759C12.6461 11.1569 12.7268 11.353 12.7768 11.5578C12.8117 11.7157 12.8296 11.8769 12.8303 12.0385H10.7543C10.711 11.702 10.3875 11.5351 9.78638 11.5351H6.02157C5.38221 11.5351 5.06381 11.6717 5.06381 11.9449C5.06381 12.1752 5.25739 12.2916 5.64713 12.2916L10.604 12.2915Z" fill="white"/>
<path d="M21.9569 9.88525H24.0227V16.413H21.9569V13.9891H15.8334V16.413H13.7676V9.88525H15.8334V12.17H21.9569V9.88525Z" fill="white"/>
<path d="M33.6668 16.413L33.3942 15.3781H27.1306L26.858 16.413H24.7744L26.5115 9.88525H34.0233L35.7605 16.413H33.6668ZM27.5993 13.559H32.9154L32.4263 11.6842H28.0884L27.5993 13.559Z" fill="white"/>
<path d="M46.3975 9.88525L44.8386 13.1491L46.3975 16.413H44.1636L43.0174 13.9891H38.3967V16.413H36.3232V9.88525H38.3967V12.1978H43.0735L44.1638 9.88525H46.3975Z" fill="white"/>
<path d="M56.1636 11.6563H49.1205V12.3091H55.5242V14.0068H49.1205V14.6419H56.1636V16.413H47.0547V9.88525H56.1636V11.6563Z" fill="white"/>
<path d="M25.3909 32.7397V34.5387H21.3255V39.2675H19.2597V34.5387H15.1943V32.7397H25.3909Z" fill="white"/>
<path d="M34.0032 39.2675L33.7307 38.2326H27.467L27.1945 39.2675H25.1108L26.8481 32.7397H34.3597L36.097 39.2675H34.0032ZM27.9357 36.4135H33.2518L32.7627 34.5387H28.4248L27.9357 36.4135Z" fill="white"/>
<path d="M46.734 32.7397L45.1776 36.0036L46.734 39.2675H44.5002L43.354 36.8436H38.7357V39.2675H36.6597V32.7397H38.7357V35.0523H43.4125L44.5002 32.7397H46.734Z" fill="white"/>
<path d="M56.5 34.5108H49.4569V35.1636H55.8607V36.8613H49.4569V37.4964H56.5V39.2675H47.3911V32.7397H56.5V34.5108Z" fill="white"/>
<path d="M3.31913 37.0155C3.31671 36.6076 3.42213 36.2063 3.6248 35.8516C3.83487 35.4868 4.13683 35.1825 4.50105 34.9686C4.33921 34.7255 4.24838 34.4426 4.23868 34.1514C4.23551 33.9321 4.28063 33.7148 4.37082 33.5146C4.46101 33.3145 4.59412 33.1363 4.76086 32.9926C5.11774 32.6889 5.57219 32.522 6.04212 32.522C6.51206 32.522 6.9665 32.6889 7.32338 32.9926C7.48934 33.1368 7.62179 33.3151 7.71151 33.5152C7.80124 33.7153 7.84609 33.9324 7.84301 34.1514C7.84236 34.4605 7.74458 34.7617 7.56329 35.013C7.38201 35.2642 7.12626 35.453 6.83176 35.553L7.9449 36.7573C8.04819 36.402 8.10134 36.0341 8.10283 35.6643L9.42484 35.8237C9.39135 36.5276 9.20359 37.2158 8.87464 37.8402L10.2552 39.3229H8.52575L8.03413 38.7966C7.47145 39.2403 6.77074 39.4756 6.05239 39.462C5.33302 39.4889 4.63048 39.2419 4.08848 38.7713C3.83889 38.5522 3.64071 38.2814 3.50779 37.9781C3.37487 37.6747 3.31046 37.3462 3.31913 37.0155ZM5.12002 37.8504C5.37491 38.079 5.70909 38.2005 6.05231 38.1894C6.4423 38.1909 6.82191 38.0647 7.13234 37.8302L5.36965 35.9427C5.17091 36.0438 5.00581 36.1998 4.8942 36.3919C4.78258 36.5841 4.72921 36.8041 4.74049 37.0257C4.73753 37.1826 4.77008 37.3382 4.83577 37.4809C4.90146 37.6237 4.99862 37.7499 5.12002 37.8504ZM5.67023 34.5004C5.77098 34.5935 5.90457 34.6435 6.04212 34.6396C6.17789 34.6429 6.30988 34.595 6.41147 34.5055C6.4613 34.4612 6.50059 34.4064 6.52657 34.3452C6.55256 34.2839 6.56459 34.2177 6.56176 34.1513C6.56381 34.0861 6.55143 34.0213 6.52546 33.9614C6.49949 33.9015 6.46056 33.848 6.41147 33.8047C6.31171 33.7116 6.17891 33.6616 6.04212 33.6655C5.90457 33.6616 5.77098 33.7116 5.67023 33.8047C5.6216 33.8483 5.58296 33.9019 5.55703 33.9617C5.5311 34.0215 5.51847 34.0862 5.51994 34.1513C5.51717 34.217 5.5292 34.2824 5.5552 34.3428C5.5812 34.4032 5.62053 34.4571 5.67023 34.5005V34.5004Z" fill="white"/>
<path d="M3.32176 0.174805H2.01758V5.38939H3.32176V0.174805Z" fill="white"/>
<path d="M5.29575 2.1333H0.0458984V3.42872H5.29575V2.1333Z" fill="white"/>
<path d="M59.9823 3.31201H54.7324V4.60743H59.9823V3.31201Z" fill="white"/>
<path d="M36.2392 0H34.9351V7.91674H36.2392V0Z" fill="white"/>
</g>
<defs>
<clipPath id="clip0_48_68">
<rect width="60" height="42" fill="white"/>
</clipPath>
</defs>
</svg>
